<svg xmlns="http://www.w3.org/2000/svg" xmlns:xlink="http://www.w3.org/1999/xlink" fill="none" version="1.1" width="34.622161865234375" height="30" viewBox="0 0 34.622161865234375 30"><defs><linearGradient x1="-0.18792951107025146" y1="0.5" x2="0.9981484113722335" y2="0.6729557461954787" id="master_svg0_1_445"><stop offset="0%" stop-color="#F5E1FF" stop-opacity="1"/><stop offset="100%" stop-color="#DEF5FF" stop-opacity="1"/></linearGradient><linearGradient x1="0.5" y1="0" x2="0.1910007350065432" y2="4.061504608591136" id="master_svg1_1_448"><stop offset="0%" stop-color="#F9F7FF" stop-opacity="1"/><stop offset="100%" stop-color="#7C49F3" stop-opacity="1"/></linearGradient><linearGradient x1="0.35573849081993103" y1="0.0833333358168602" x2="0.803728034672235" y2="1.1434878954624788" id="master_svg2_1_440"><stop offset="2.142857201397419%" stop-color="#F9E5FF" stop-opacity="1"/><stop offset="100%" stop-color="#4800FF" stop-opacity="1"/></linearGradient><linearGradient x1="0.5" y1="0" x2="0.5" y2="1" id="master_svg3_1_436"><stop offset="0%" stop-color="#E80BA6" stop-opacity="1"/><stop offset="100%" stop-color="#00FFDD" stop-opacity="1"/></linearGradient></defs><g><g transform="matrix(-0.7071068286895752,0.7071068286895752,0.7071068286895752,0.7071068286895752,44.63986936070796,-18.4904400394189)"><path d="M37.67442932128906,5.99112C37.67442932128906,9.29993,35.094499321289064,11.9822,31.911949321289065,11.9822C30.320669321289063,11.9822,28.88003932128906,11.3117,27.837229321289062,10.2275C26.79442132128906,9.14331,26.149429321289062,7.64553,26.149429321289062,5.99112C26.149429321289062,2.68232,28.729399321289062,0,31.911949321289065,0C35.094499321289064,0,37.67442932128906,2.68232,37.67442932128906,5.99112Z" fill="url(#master_svg0_1_445)" fill-opacity="1"/></g><g transform="matrix(-0.7071068286895752,0.7071068286895752,0.7071068286895752,0.7071068286895752,13.911946444295609,-5.762517123006546)"><path d="M19.67442932128906,5.99112C19.67442932128906,9.29993,17.094499321289064,11.9822,13.911949321289063,11.9822C12.320669321289063,11.9822,10.880039321289063,11.3117,9.837229321289062,10.2275C8.794421321289063,9.14331,8.149429321289062,7.64553,8.149429321289062,5.99112C8.149429321289062,2.68232,10.729399321289062,0,13.911949321289063,0C17.094499321289064,0,19.67442932128906,2.68232,19.67442932128906,5.99112Z" fill="url(#master_svg1_1_448)" fill-opacity="1"/></g><g><ellipse cx="17.728392601013184" cy="16.5" rx="13.124999046325684" ry="13.5" fill="url(#master_svg2_1_440)" fill-opacity="1"/></g><g><path d="M8.262483596801758,18.293489140319824C8.262483596801758,23.039189140319824,10.871453596801757,23.932789140319827,17.317023596801757,22.515289140319823C17.734743596801756,22.515289140319823,18.320483596801758,22.679389140319824,19.001083596801756,22.870089140319823C21.370883596801757,23.534089140319825,24.88988359680176,24.520089140319826,26.463683596801758,20.019189140319824C28.48938359680176,14.225739140319824,22.65768359680176,7.723519140319825,17.59326359680176,8.309036340319825C12.528863596801758,8.894554140319824,8.262483596801758,13.547799140319825,8.262483596801758,18.293489140319824Z" fill="#010101" fill-opacity="1"/><path d="M10.757183596801758,11.488959140319825Q7.891866596801758,14.573549140319823,7.891867596801758,18.293489140319824Q7.891866596801758,22.032289140319826,10.223803596801758,23.054989140319826Q12.340363596801758,23.983289140319826,17.353693596801758,22.886689140319824Q17.74149359680176,22.902089140319823,18.901083596801758,23.226989140319823Q21.638283596801756,23.993889140319823,23.092883596801755,23.746889140319823Q25.708083596801757,23.302689140319824,26.813483596801756,20.141489140319827Q27.577983596801758,17.95515914031982,27.004783596801758,15.576209140319826Q26.48148359680176,13.404569140319825,24.97568359680176,11.539199140319823Q23.51038359680176,9.724059140319824,21.567283596801758,8.745988140319824Q19.51638359680176,7.713610140319824,17.55070359680176,7.940873140319824Q13.632223596801758,8.393904140319824,10.757183596801758,11.488959140319825ZM10.521523596801758,22.376189140319823Q8.633100596801757,21.547989140319824,8.633100596801757,18.293489140319824Q8.633100596801757,14.864699140319825,11.300263596801758,11.993429140319824Q13.989113596801758,9.098813140319825,17.63583359680176,8.677201140319823Q19.38118359680176,8.475409140319824,21.23408359680176,9.408069140319824Q23.034083596801757,10.314189140319824,24.398883596801756,12.004799140319825Q25.79998359680176,13.740369140319824,26.284183596801757,15.749839140319825Q26.80618359680176,17.916569140319822,26.113783596801756,19.896889140319825Q25.152783596801758,22.64518914031982,22.968783596801757,23.016089140319824Q21.678083596801756,23.235289140319825,19.101083596801757,22.513189140319824Q17.785683596801757,22.144689140319826,17.317023596801757,22.144689140319826L17.276753596801758,22.144689140319826L17.237423596801758,22.153289140319824Q12.426013596801758,23.211489140319824,10.521523596801758,22.376189140319823Z" fill-rule="evenodd" fill="url(#master_svg3_1_436)" fill-opacity="1"/></g><g><path d="M13.352939529418945,15.142013549804688Q13.352939529418945,15.047954249804688,13.371289529418945,14.955702549804688Q13.389639529418945,14.863450549804687,13.425634529418945,14.776550549804687Q13.461629529418945,14.689651549804687,13.513886529418945,14.611443549804687Q13.566142529418945,14.533236549804688,13.632652529418944,14.466726549804687Q13.699162529418945,14.400216549804687,13.777370529418945,14.347960549804688Q13.855577529418944,14.295703549804687,13.942476529418945,14.259708549804687Q14.029376529418945,14.223713549804687,14.121628529418945,14.205363549804687Q14.213880229418946,14.187013549804687,14.307939529418945,14.187013549804687Q14.401998829418945,14.187013549804687,14.494250529418945,14.205363549804687Q14.586502529418945,14.223713549804687,14.673402529418945,14.259708549804687Q14.760301529418946,14.295703549804687,14.838509529418946,14.347960549804688Q14.916716529418945,14.400216549804687,14.983226529418946,14.466726549804687Q15.049736529418945,14.533236549804688,15.101992529418945,14.611444549804688Q15.154249529418946,14.689651549804687,15.190244529418946,14.776550549804687Q15.226239529418946,14.863450549804687,15.244589529418946,14.955702549804688Q15.262939529418945,15.047954249804688,15.262939529418945,15.142013549804688L15.265365529418945,15.142013549804688L15.265365529418945,17.85799354980469L15.262939529418945,17.85799354980469Q15.262939529418945,17.95205354980469,15.244589529418946,18.044303549804688Q15.226239529418946,18.136553549804688,15.190244529418946,18.223453549804688Q15.154249529418946,18.310353549804688,15.101992529418945,18.388563549804687Q15.049736529418945,18.46676354980469,14.983226529418946,18.533273549804687Q14.916716529418945,18.599783549804688,14.838508529418945,18.652043549804688Q14.760301529418946,18.70430354980469,14.673402529418945,18.740293549804687Q14.586502529418945,18.776293549804688,14.494250529418945,18.794643549804686Q14.401998829418945,18.812993549804688,14.307939529418945,18.812993549804688Q14.213880229418946,18.812993549804688,14.121628529418945,18.794643549804686Q14.029376529418945,18.776293549804688,13.942476529418945,18.740293549804687Q13.855577529418944,18.70430354980469,13.777369529418944,18.652043549804688Q13.699162529418945,18.599783549804688,13.632652529418944,18.533273549804687Q13.566142529418945,18.46676354980469,13.513886529418945,18.388563549804687Q13.461629529418945,18.310353549804688,13.425634529418945,18.223453549804688Q13.389639529418945,18.136553549804688,13.371289529418945,18.044303549804688Q13.352939529418945,17.95205354980469,13.352939529418945,17.85799354980469L13.350513529418945,17.85799354980469L13.350513529418945,15.142013549804688L13.352939529418945,15.142013549804688Z" fill-rule="evenodd" fill="#FFFFFF" fill-opacity="1"/></g><g><path d="M20.19383041381836,15.142013549804688Q20.19383041381836,15.047954249804688,20.21218041381836,14.955702549804688Q20.23053041381836,14.863450549804687,20.26652541381836,14.776550549804687Q20.30252041381836,14.689651549804687,20.354777413818358,14.611443549804687Q20.40703341381836,14.533236549804688,20.47354341381836,14.466726549804687Q20.54005341381836,14.400216549804687,20.61826141381836,14.347960549804688Q20.69646841381836,14.295703549804687,20.78336741381836,14.259708549804687Q20.87026741381836,14.223713549804687,20.96251941381836,14.205363549804687Q21.054771113818358,14.187013549804687,21.14883041381836,14.187013549804687Q21.24288971381836,14.187013549804687,21.33514141381836,14.205363549804687Q21.427393413818358,14.223713549804687,21.514293413818358,14.259708549804687Q21.60119241381836,14.295703549804687,21.67940041381836,14.347960549804688Q21.75760741381836,14.400216549804687,21.82411741381836,14.466726549804687Q21.890627413818358,14.533236549804688,21.94288341381836,14.611444549804688Q21.99514041381836,14.689651549804687,22.031135413818358,14.776550549804687Q22.067130413818358,14.863450549804687,22.08548041381836,14.955702549804688Q22.103830413818358,15.047954249804688,22.103830413818358,15.142013549804688L22.10625641381836,15.142013549804688L22.10625641381836,17.85799354980469L22.103830413818358,17.85799354980469Q22.103830413818358,17.95205354980469,22.08548041381836,18.044303549804688Q22.067130413818358,18.136553549804688,22.031135413818358,18.223453549804688Q21.99514041381836,18.310353549804688,21.94288341381836,18.388563549804687Q21.890627413818358,18.46676354980469,21.82411741381836,18.533273549804687Q21.75760741381836,18.599783549804688,21.67939941381836,18.652043549804688Q21.60119241381836,18.70430354980469,21.514293413818358,18.740293549804687Q21.427393413818358,18.776293549804688,21.33514141381836,18.794643549804686Q21.24288971381836,18.812993549804688,21.14883041381836,18.812993549804688Q21.054771113818358,18.812993549804688,20.96251941381836,18.794643549804686Q20.87026741381836,18.776293549804688,20.78336741381836,18.740293549804687Q20.69646841381836,18.70430354980469,20.61826041381836,18.652043549804688Q20.54005341381836,18.599783549804688,20.47354341381836,18.533273549804687Q20.40703341381836,18.46676354980469,20.354777413818358,18.388563549804687Q20.30252041381836,18.310353549804688,20.26652541381836,18.223453549804688Q20.23053041381836,18.136553549804688,20.21218041381836,18.044303549804688Q20.19383041381836,17.95205354980469,20.19383041381836,17.85799354980469L20.191404413818358,17.85799354980469L20.191404413818358,15.142013549804688L20.19383041381836,15.142013549804688Z" fill-rule="evenodd" fill="#FFFFFF" fill-opacity="1"/></g></g></svg>