<svg xmlns="http://www.w3.org/2000/svg" xmlns:xlink="http://www.w3.org/1999/xlink" fill="none" version="1.1" width="56" height="56" viewBox="0 0 56 56"><defs><clipPath id="master_svg0_10_362"><rect x="12" y="12" width="32" height="32" rx="0"/></clipPath><linearGradient x1="0.5" y1="0" x2="0.5" y2="1" id="master_svg1_1_982"><stop offset="0%" stop-color="#71D5FE" stop-opacity="1"/><stop offset="100%" stop-color="#B3E6FD" stop-opacity="1"/></linearGradient></defs><g><g><g><ellipse cx="28" cy="28" rx="28" ry="28" fill="#FFFFFF" fill-opacity="1"/></g><g clip-path="url(#master_svg0_10_362)"><g><path d="M28.000048046875,14.6666259765625C35.363748046875,14.6666259765625,41.333448046875,20.6362959765625,41.333448046875,27.9999259765625C41.333448046875,35.3636259765625,35.363748046875,41.3333259765625,28.000048046875,41.3333259765625C20.636418046875,41.3333259765625,14.666748046875,35.3636259765625,14.666748046875,27.9999259765625C14.666748046875,20.6362959765625,20.636418046875,14.6666259765625,28.000048046875,14.6666259765625ZM34.706048046875,24.625295976562498C34.315048046875,24.2354659765625,33.682048046874996,24.2363559765625,33.292048046874996,24.6272959765625L29.023048046874997,28.9083259765625L26.467048046875,26.1236259765625C26.077448046875,25.699025976562503,25.410448046875,25.6907259765625,25.010448046875,26.1056259765625L21.280418046875,29.9723259765625C20.896948046875,30.3697259765625,20.908288046875,31.0028259765625,21.305748046875,31.3863259765625C21.703208046874998,31.7697259765625,22.336278046875,31.7584259765625,22.719748046875,31.3609259765625L25.712048046874997,28.2589259765625L28.256448046875,31.0309259765625C28.641548046875002,31.4507259765625,29.299148046875,31.4644259765625,29.701448046875,31.0609259765625L34.708048046875,26.039325976562502C35.097948046875004,25.6482259765625,35.097048046875,25.015225976562498,34.706048046875,24.625295976562498Z" fill="url(#master_svg1_1_982)" fill-opacity="1" style="mix-blend-mode:passthrough"/></g></g></g></g></svg>