<svg xmlns="http://www.w3.org/2000/svg" xmlns:xlink="http://www.w3.org/1999/xlink" fill="none" version="1.1" width="63.95400619506836" height="16.522001266479492" viewBox="0 0 63.95400619506836 16.522001266479492"><g><path d="M0,16.214L2.552,16.214L2.552,0L0,0L0,16.214ZM6.798,16.214L11.132,16.214C15.972,16.214,18.81,13.332,18.81,8.052C18.81,2.75,15.972,0,11,0L6.798,0L6.798,16.214ZM9.35,14.124L9.35,2.09L10.824,2.09C14.3,2.09,16.17,4.004,16.17,8.052C16.17,12.078,14.3,14.124,10.824,14.124L9.35,14.124ZM21.076,10.934L26.884,10.934L26.884,9.064L21.076,9.064L21.076,10.934ZM30.03,16.214L35.442,16.214C39.05,16.214,41.646,14.674,41.646,11.462C41.646,9.262,40.304,7.986,38.456,7.612L38.456,7.502C39.93,7.018,40.766,5.544,40.766,3.982C40.766,1.078,38.368,0,35.068,0L30.03,0L30.03,16.214ZM32.582,6.776L32.582,2.002L34.826,2.002C37.114,2.002,38.258,2.662,38.258,4.334C38.258,5.852,37.224,6.776,34.76,6.776L32.582,6.776ZM32.582,14.212L32.582,8.712L35.156,8.712C37.73,8.712,39.138,9.526,39.138,11.33C39.138,13.31,37.686,14.212,35.156,14.212L32.582,14.212ZM49.346,16.522C52.338,16.522,55.022,14.19,55.022,10.164C55.022,6.138,52.338,3.806,49.346,3.806C46.332,3.806,43.626,6.138,43.626,10.164C43.626,14.19,46.332,16.522,49.346,16.522ZM49.346,14.41C47.432,14.41,46.244,12.738,46.244,10.164C46.244,7.612,47.432,5.896,49.346,5.896C51.238,5.896,52.426,7.612,52.426,10.164C52.426,12.738,51.238,14.41,49.346,14.41ZM61.578,16.522C62.458,16.522,63.294,16.28,63.954,16.06L63.492,14.19C63.14,14.322,62.612,14.476,62.216,14.476C60.94,14.476,60.434,13.728,60.434,12.276L60.434,6.138L63.58,6.138L63.58,4.092L60.434,4.092L60.434,0.748001L58.322,0.748001L58.036,4.092L56.144,4.246L56.144,6.138L57.904,6.138L57.904,12.254C57.904,14.806,58.872,16.522,61.578,16.522Z" fill="#000000" fill-opacity="1"/></g></svg>